<?xml version="1.0" standalone="no"?>
<!DOCTYPE svg PUBLIC "-//W3C//DTD SVG 20010904//EN"
 "http://www.w3.org/TR/2001/REC-SVG-20010904/DTD/svg10.dtd">
<svg version="1.0" xmlns="http://www.w3.org/2000/svg"
 width="741.000000pt" height="741.000000pt" viewBox="0 0 741.000000 741.000000"
 preserveAspectRatio="xMidYMid meet">
<metadata>
Created by potrace 1.14, written by Peter Selinger 2001-2017
</metadata>
<g transform="translate(0.000000,741.000000) scale(0.100000,-0.100000)"
fill="#000000" stroke="none">
<path d="M2308 6054 c-3 -2 -61 -6 -129 -9 -68 -3 -135 -7 -149 -9 -14 -2 -46
-7 -70 -10 -25 -4 -52 -8 -60 -10 -8 -1 -33 -6 -55 -10 -22 -5 -67 -15 -100
-23 -33 -8 -67 -16 -75 -18 -22 -5 -142 -44 -165 -54 -11 -5 -45 -19 -75 -31
-88 -35 -214 -97 -294 -145 -106 -62 -159 -97 -199 -130 -7 -5 -30 -23 -52
-40 -96 -71 -285 -256 -373 -365 -140 -174 -285 -423 -358 -617 -42 -110 -91
-273 -100 -333 -2 -14 -7 -36 -10 -50 -12 -52 -14 -66 -31 -195 -10 -78 -10
-422 0 -503 15 -120 51 -301 75 -379 6 -18 8 -33 5 -33 -3 0 0 -6 6 -14 7 -8
14 -22 16 -32 13 -64 71 -203 142 -341 46 -89 144 -251 173 -286 6 -7 27 -34
47 -62 141 -190 411 -433 619 -557 298 -176 544 -263 924 -324 25 -4 518 -8
1095 -10 1049 -3 1050 -3 1120 18 39 12 72 24 75 27 3 4 19 13 35 21 17 8 59
44 95 80 106 105 151 220 146 369 -5 141 -57 254 -162 350 -46 42 -142 100
-179 108 -5 1 -21 5 -35 9 -27 9 -345 12 -1400 17 -377 2 -695 6 -706 9 -12 4
-37 9 -55 12 -66 10 -213 57 -286 91 -81 37 -196 104 -201 117 -2 4 -8 8 -14
8 -6 0 -38 23 -72 52 -157 134 -263 269 -346 443 -55 116 -56 118 -79 200 -36
132 -46 208 -46 365 1 198 31 350 99 500 11 25 21 47 21 50 1 3 11 25 24 50
77 146 206 300 346 413 51 41 151 107 161 107 3 0 18 8 32 19 62 43 269 113
412 138 19 3 413 7 875 9 1277 5 1178 3 1250 24 94 27 141 56 219 134 129 130
174 298 127 474 -24 92 -71 170 -142 236 -111 102 -215 138 -394 136 -38 -1
-74 -1 -80 -1 -5 0 -345 0 -755 0 -811 0 -840 0 -869 6 -10 2 -21 2 -23 -1z"/>
<path d="M5851 5959 c-65 -12 -125 -45 -175 -96 -62 -62 -92 -126 -116 -243
-14 -71 -11 -259 5 -321 7 -27 12 -49 10 -49 -13 0 70 -142 101 -173 102 -101
279 -128 419 -63 119 55 191 172 212 346 32 263 -42 480 -193 561 -76 41 -172
54 -263 38z m153 -191 c75 -38 108 -125 108 -287 0 -221 -50 -314 -172 -320
-100 -4 -158 55 -185 190 -6 30 -6 202 0 247 13 89 75 174 136 184 34 6 87 -1
113 -14z"/>
<path d="M5089 5945 c0 0 -2 -7 -4 -16 -7 -40 -39 -88 -63 -98 -15 -6 -49 -13
-76 -16 -27 -2 -51 -7 -54 -10 -3 -3 -6 -37 -7 -75 l0 -70 92 0 93 0 0 -245
c0 -135 -3 -245 -7 -246 -5 -1 -46 -2 -93 -2 l-85 -2 -2 -83 -2 -82 287 2 287
3 0 81 0 81 -89 -1 c-75 -1 -89 1 -95 16 -3 9 -6 184 -5 387 0 204 -2 372 -5
372 -5 1 -170 5 -172 4z"/>
<path d="M6664 5915 c-16 -73 -59 -99 -176 -104 -16 -1 -18 -12 -18 -76 l0
-75 90 0 90 0 1 -27 c4 -207 -1 -457 -10 -462 -6 -4 -47 -7 -91 -6 -44 1 -81
-2 -81 -5 -4 -17 -5 -137 -1 -147 3 -10 69 -13 286 -13 l282 0 1 83 0 83 -81
-1 c-44 0 -87 1 -93 3 -10 3 -13 90 -13 391 l0 387 -90 0 -89 -1 -7 -30z"/>
<path d="M3318 4535 c-3 -3 -32 -7 -64 -9 -210 -14 -386 -165 -460 -396 -10
-30 -19 -59 -20 -65 -12 -57 -15 -80 -21 -145 -12 -135 -6 -279 18 -388 6 -28
10 -54 10 -57 0 -3 10 -30 24 -61 14 -31 25 -63 25 -70 0 -8 5 -14 10 -14 6 0
10 -7 10 -15 0 -14 84 -124 104 -137 6 -3 22 -16 36 -28 47 -41 147 -83 234
-97 34 -5 156 -5 196 1 53 7 117 29 172 58 57 31 157 122 183 168 57 101 98
221 112 328 9 72 9 301 -1 367 -45 318 -237 529 -500 551 -27 3 -52 6 -56 9
-4 2 -9 2 -12 0z m120 -304 c104 -53 161 -216 156 -451 -4 -213 -32 -318 -105
-392 -53 -53 -100 -70 -184 -67 -112 5 -186 71 -227 202 -20 64 -23 93 -23
257 0 196 3 221 36 312 30 81 87 135 169 161 36 11 137 -1 178 -22z"/>
<path d="M5688 4535 c-3 -3 -31 -8 -64 -11 -264 -25 -453 -240 -491 -559 -21
-168 -5 -399 34 -515 91 -267 267 -401 528 -403 294 -1 494 181 560 513 28
140 19 413 -17 530 -19 63 -24 74 -61 151 -80 163 -228 266 -412 285 -33 4
-63 8 -66 10 -3 2 -8 1 -11 -1z m115 -300 c75 -35 125 -114 151 -240 18 -88
19 -338 1 -407 -8 -26 -14 -52 -14 -56 -7 -52 -57 -138 -99 -169 -112 -82
-296 -44 -355 75 -43 85 -59 165 -61 320 -5 301 54 445 203 493 39 12 133 4
174 -16z"/>
<path d="M2041 4444 c-21 -94 -73 -132 -191 -140 -103 -7 -95 3 -95 -120 l0
-109 110 -2 c61 0 122 -1 138 -2 l27 -1 0 -370 -1 -370 -27 1 c-15 0 -71 0
-124 -1 -54 -1 -102 1 -107 4 -5 4 -13 1 -16 -5 -6 -8 -9 -154 -6 -231 1 -17
28 -18 429 -18 l429 0 0 125 -1 126 -35 -1 c-20 0 -74 -1 -120 0 -46 0 -86 -2
-90 -4 -4 -3 -13 -1 -21 4 -12 8 -15 97 -15 587 l0 578 -136 1 -136 1 -12 -53z"/>
<path d="M4420 4456 c-14 -58 -39 -103 -66 -121 -26 -17 -100 -32 -182 -37
l-43 -2 3 -110 3 -111 135 -1 135 -1 0 -369 c0 -203 -4 -372 -8 -375 -5 -4
-24 -3 -43 1 -19 4 -49 5 -66 1 -31 -6 -47 -7 -93 -1 -11 1 -32 2 -46 1 l-26
-1 0 -125 0 -125 430 2 430 3 0 120 0 120 -31 2 c-18 1 -58 2 -89 2 -56 0 -96
1 -138 4 -21 2 -21 3 -25 1078 l0 87 -135 -1 -135 0 -10 -41z"/>
<path d="M6804 4489 c-3 -5 -7 -22 -10 -37 -16 -95 -73 -139 -196 -148 -40 -4
-78 -10 -83 -15 -7 -5 -11 -50 -10 -111 l0 -103 125 -2 c69 0 130 -2 137 -2 8
-1 12 -96 12 -371 l0 -371 -37 1 c-128 1 -169 1 -182 0 -8 0 -26 0 -40 0 l-25
0 2 -108 c1 -59 2 -115 2 -124 1 -17 28 -18 429 -18 l428 0 1 129 0 128 -31
-6 c-17 -4 -40 -6 -51 -5 -11 1 -31 3 -45 3 -23 1 -54 2 -125 5 l-30 1 0 581
0 581 -132 1 c-73 0 -135 -4 -139 -9z"/>
<path d="M5135 2465 c-133 -40 -202 -111 -257 -265 -23 -63 -35 -299 -18 -360
5 -19 11 -46 14 -60 13 -78 122 -240 161 -240 7 0 18 -7 25 -15 6 -8 15 -14
18 -13 4 1 27 -4 52 -11 61 -18 177 -16 208 2 6 5 12 6 12 2 0 -10 95 43 126
72 93 83 139 223 138 418 -1 238 -85 396 -243 456 -66 25 -178 32 -236 14z
m151 -179 c61 -14 110 -92 121 -194 21 -189 -11 -345 -81 -395 -25 -17 -45
-22 -98 -22 -64 0 -69 2 -104 36 -55 55 -75 140 -71 299 3 111 7 131 31 181
30 65 42 76 92 94 38 13 60 13 110 1z"/>
<path d="M6739 2470 c-144 -26 -256 -151 -292 -327 -14 -70 -16 -247 -2 -318
33 -181 150 -310 300 -331 177 -25 319 42 394 188 12 24 23 51 24 59 2 8 5 19
9 24 25 40 31 328 8 405 -8 25 -14 47 -14 50 -1 3 -13 30 -28 60 -57 116 -168
189 -295 194 -37 1 -84 0 -104 -4z m127 -183 c91 -22 134 -131 129 -327 -3
-120 -6 -138 -36 -201 -49 -107 -199 -121 -272 -25 -15 20 -25 36 -21 36 3 0
2 6 -4 13 -14 18 -24 89 -26 192 -5 240 75 349 230 312z"/>
<path d="M5969 2455 c0 0 -2 -13 -4 -28 -10 -73 -53 -100 -172 -106 -22 -1
-23 -5 -23 -75 l0 -74 86 0 c47 -1 89 -3 92 -6 3 -3 6 -114 6 -246 1 -233 0
-240 -19 -241 -11 -1 -49 -2 -85 -3 -36 -1 -69 -3 -75 -4 -8 -2 -12 -109 -6
-154 1 -5 129 -8 286 -8 l286 0 -3 83 -3 82 -70 1 c-38 1 -80 2 -92 3 l-22 1
0 363 c0 199 0 373 0 387 -1 28 14 26 -182 25z"/>
</g>
</svg>
