<svg width="81" height="27" viewBox="0 0 81 27" fill="none" xmlns="http://www.w3.org/2000/svg"><mask id="mask0" style="mask-type: alpha" maskUnits="userSpaceOnUse" x="0" y="0" width="74" height="27"><path d="M.0320435.214577H73.8197V26.8517H.0320435V.214577z" fill="#fff"></path></mask><g mask="url(#mask0)"><path fill-rule="evenodd" clip-rule="evenodd" d="M66.8068.214577H60.1177L67.13 26.8009h6.6897L66.8068.214577zm-18.5668.0L55.2523 26.8009H61.942L54.9292.214577H48.24zM37.1496 12.4922H32.8119V6.07114h4.3377c2.4727.0 3.5996 1.2588 3.5996 3.21027.0 1.95259-1.1269 3.21079-3.5996 3.21079zM47.5634 9.28141c0-5.81277-3.9494-9.066833-9.6752-9.066833H25.9134V26.8517h6.8985V18.0454h2.4306l5.5527 8.8063h7.722L42.2681 17.3079C45.5216 16.0929 47.5634 13.3163 47.5634 9.28141zM9.71786 20.822H6.8526V6.20199H9.71786c4.42264.0 6.89534 2.81987 6.89534 7.33161.0 4.4686-2.4727 7.2884-6.89534 7.2884zM10.0639.214577H0V26.8517H10.0639c8.3715.0 13.4478-5.2061 13.4478-13.3181.0-8.11295-5.0763-13.319023-13.4478-13.319023z" fill="currentColor"></path></g><path fill-rule="evenodd" clip-rule="evenodd" d="M80.832.214577H72.8098L76.8206 15.4221 80.832.214577z" fill="#00d4c1"></path></svg>