<svg width="177" height="55" viewBox="0 0 177 55" fill="none" xmlns="http://www.w3.org/2000/svg">
<g clip-path="url(#clip0_1655_5)">
<path d="M45.6794 24.3381L38.0867 20.1429L31.6928 24.0605L31.6006 28.0706L28.4958 26.0038L24.2537 28.595C24.1923 27.3919 24.1308 25.9421 24.0693 24.2147L19.7042 21.2843C20.9031 20.6673 22.2864 19.9578 23.8541 19.125C23.8234 19.125 23.8849 19.5568 23.2393 4.78118L13.4026 0.0307617L0 4.22594L2.98176 18.6931L7.46978 22.2097L4.05766 23.8446L6.30167 34.7335L9.43713 37.6948L7.19312 39.0829L8.94529 47.5041L15.9847 54.9999C16.0155 54.9691 16.7225 54.4138 25.053 47.7509L24.8071 42.0134L28.4036 45.0672C28.4651 45.0055 29.1414 44.4811 35.689 39.268L35.9349 35.042L38.64 36.9236C38.6707 36.8619 39.2855 36.3992 44.5728 32.2041L45.6794 24.3381Z" fill="#141414"/>
<path d="M39.3778 28.8419L45.6795 24.3382L38.0868 20.1431L31.6929 24.0606L39.3778 28.8419Z" fill="#141414"/>
<path d="M38.6707 36.862L39.3777 28.8418L31.6928 24.0605L31.5391 31.8957L38.6707 36.862Z" fill="#004B16"/>
<path d="M28.4651 45.0363L28.3729 36.7077L20.6572 30.8159L21.2413 38.9595L28.4651 45.0363Z" fill="#004B16"/>
<path d="M28.3729 36.7078L36.2116 31.0936L28.4959 26.0039L20.6572 30.816L28.3729 36.7078Z" fill="#141414"/>
<path d="M16.0154 54.9693L14.7551 46.4556L7.19312 39.0215L8.94529 47.4735L16.0154 54.9693Z" fill="#004B16"/>
<path d="M14.7551 46.4555L24.7148 39.3299L16.9991 33.0371L7.19312 39.0214L14.7551 46.4555Z" fill="#141414"/>
<path d="M14.1095 42.0441L12.4803 30.8158L4.05762 23.7827L6.30162 34.7025L14.1095 42.0441Z" fill="#004B16"/>
<path d="M12.4803 30.8161L24.0693 24.2148L15.4006 18.3848L4.05762 23.783L12.4803 30.8161Z" fill="#141414"/>
<path d="M11.6811 25.4488L9.43713 10.0562L0 4.19531L2.98176 18.6625L11.6811 25.4488Z" fill="#004B16"/>
<path d="M9.43713 10.0561L23.2393 4.75042L13.4026 0L0 4.19518L9.43713 10.0561Z" fill="#141414"/>
<path d="M44.6343 32.1426C38.7937 36.8005 38.6708 36.8931 38.7015 36.8931C39.4393 28.5027 39.3778 28.8729 39.4085 28.8729C46.1098 24.0916 45.6794 24.3692 45.7102 24.3692L44.6343 32.1426Z" fill="#1CB35C"/>
<path d="M35.7197 39.2374C28.4959 45.0058 28.4036 45.0366 28.4344 45.0366C28.3729 36.3378 28.3422 36.708 28.3729 36.708C36.7034 30.7237 36.1808 31.0938 36.2116 31.0938L35.7197 39.2374Z" fill="#1CB35C"/>
<path d="M25.0838 47.72C16.0463 54.9073 15.9848 54.969 16.0156 54.969C14.7245 46.2085 14.7552 46.4861 14.786 46.4861C25.3912 38.8977 24.715 39.3604 24.7457 39.3604L25.0838 47.72Z" fill="#1CB35C"/>
<path d="M23.2394 4.75049C23.885 19.5261 23.8235 19.0943 23.8542 19.0943C11.9272 25.3254 11.6505 25.4487 11.6812 25.4487C9.37575 9.71684 9.40649 10.0562 9.43723 10.0562L23.2394 4.75049Z" fill="#1CB35C"/>
<path d="M24.0693 24.2148C24.5611 35.4123 24.4997 35.0421 24.5304 35.0421C14.2018 42.0135 14.0789 42.0752 14.1096 42.0752C12.4189 30.5385 12.4496 30.8469 12.4804 30.8469L24.0693 24.2148Z" fill="#1CB35C"/>
<path d="M58.8359 10.3647L64.0002 9.13086C64.0002 34.3636 63.0473 37.9727 66.4594 39.0832C65.6602 40.5947 64.2769 41.3659 62.371 41.3659C57.6678 41.3659 58.8359 37.8802 58.8359 10.3647Z" fill="#141414"/>
<path d="M71.8391 40.9339V22.9193H69.011V18.6624H77.0956V40.9339H71.8391ZM74.5134 10.0562C78.4789 10.0562 78.4789 16.0713 74.5134 16.0713C70.548 16.0713 70.548 10.0562 74.5134 10.0562Z" fill="#141414"/>
<path d="M97.3839 40.9338C97.3839 27.4845 97.722 25.6337 96.308 23.9063C94.5251 21.7778 90.16 22.3639 88.2849 24.8317V40.9338H83.1206V18.6623H86.8401L87.7931 20.7291C90.5904 17.3976 97.138 17.3667 100.273 20.6057C103.255 23.6904 102.548 26.9293 102.548 40.9029L97.3839 40.9338Z" fill="#141414"/>
<path d="M106.729 29.7361C106.729 14.5595 128.062 13.9734 128.062 29.7361C128.031 45.3755 106.729 45.4064 106.729 29.7361ZM112.108 29.7361C112.108 38.62 118.932 38.2807 121.238 35.196C123.39 32.2964 123.943 22.4871 117.395 22.4871C113.614 22.4871 112.108 25.9728 112.108 29.7361Z" fill="#141414"/>
<path d="M146.445 40.9336C146.445 38.6509 146.998 39.8848 144.262 40.8102C141.127 41.8899 136.546 41.4271 133.78 38.3733C130.368 34.5791 129.907 26.1888 134.179 21.5309C137.684 17.7367 142.94 17.49 146.445 19.2482V10.3335L151.64 9.09961V40.9028L146.445 40.9336ZM146.445 23.9987C143.709 21.8085 140.02 22.518 138.206 24.5847C135.716 27.3918 134.763 36.9852 143.186 36.9852C144.078 36.9852 145.953 36.3066 146.445 35.6279V23.9987Z" fill="#141414"/>
<path d="M176.631 31.4022H160.769C161.138 38.281 169.684 38.0034 172.481 35.1655L174.479 39.1448C170.176 42.6305 155.328 43.7718 155.328 30.0449C155.359 13.3568 180.32 14.9299 176.631 31.4022ZM160.954 27.4846H171.866C171.498 24.2149 169.715 22.6108 166.487 22.6108C163.505 22.6108 161.692 24.2149 160.954 27.4846Z" fill="#141414"/>
</g>
<defs>
<clipPath id="clip0_1655_5">
<rect width="177" height="55" fill="white"/>
</clipPath>
</defs>
</svg>
