<?xml version="1.0" encoding="utf-8"?>
<!-- Generator: Adobe Illustrator 19.0.0, SVG Export Plug-In . SVG Version: 6.00 Build 0)  -->
<svg version="1.1" id="layer" xmlns="http://www.w3.org/2000/svg" xmlns:xlink="http://www.w3.org/1999/xlink" x="0px" y="0px"
	 viewBox="-153 -46 652 652" style="enable-background:new -153 -46 652 652;" xml:space="preserve">
<style type="text/css">
	.st0{fill:#FEFEFE;}
	.st1{fill:#F0D913;}
</style>
<polygon class="st0" points="457.9,425.9 457.9,425.9 -120,425.9 -120,123.1 457.9,123.1 "/>
<path d="M-111.2,133.2L-111.2,133.2l559.4,0V416l-559.4,0L-111.2,133.2z M-131.4,436.2L-131.4,436.2l600,0V113.4l-600,0
	L-131.4,436.2z M-55,161.6h23.1v-7.4h-54v7.4h23.1l0,62h7.7l0,0V161.6z M-14.3,194.2c0-9.5,6.5-16,15.2-16c9,0,14,5.9,14,15.6v29.9
	h7.7v-31.8c0-12.2-7.3-20.6-19.4-20.6c-8.8,0-14.2,4.4-17.5,10.1l0-30.1h-7.5v72.3h7.5l0,0V194.2z M58,218.2L58,218.2
	c7.1,0,11.9-2.9,16-7.4l4.6,4.4c-5,5.7-11.3,9.5-20.8,9.5C44,224.7,32.6,214,32.6,198c0-14.7,10.2-26.7,24.4-26.7
	c15,0,23.5,12.2,23.5,27.1c0,0.6,0,1.5-0.2,2.3h-40C41.3,211.8,49.2,218.2,58,218.2z M72.8,195.2L72.8,195.2
	c-0.8-9.5-6-17.5-16-17.5c-9,0-15.6,7.4-16.5,17.5H72.8z M-59.1,288.6L-59.1,288.6h-11.5v20.8h-15.2v-69.2h28.1
	c16.3,0,26.3,9.9,26.3,24v0.2C-31.4,280.4-43.9,288.6-59.1,288.6z M-46.8,264.4L-46.8,264.4c0-6.7-4.6-10.5-12.1-10.5l-11.7,0v21.2
	h11.9c7.5,0,11.9-4.6,11.9-10.5V264.4z M10.3,271.1v-15.6c-8.8-0.4-13.8,4.2-16.7,11.6v-10.7h-15v53h15v-19.6
	c0-12.6,6-18.7,15.8-18.7l0,0H10.3z M20.1,237.3L20.1,237.3h15.6v13.2H20.1V237.3z M20.3,256.4L20.3,256.4h15v53h-15V256.4z
	 M93.4,309.4v-34.3c0-12.2-6.5-19.6-17.7-19.6c-7.5,0-12.1,4-15.4,8.4v-7.6h-15v53h15V280c0-7.2,3.5-10.9,9.4-10.9
	c5.6,0,9,3.8,9,10.9v29.4l0,0H93.4z M150.1,301l-8.8-9c-3.5,3.6-7.1,5.7-12.1,5.7c-8.1,0-13.3-6.5-13.3-14.5v-0.2
	c0-7.8,5.4-14.5,12.9-14.5c5.2,0,8.5,2.3,11.9,5.9l9.2-9.9c-5-5.7-11.3-8.8-21.1-8.8c-16,0-27.5,12.4-27.5,27.5v0.2
	c0,15.1,11.5,27.3,27.3,27.3l0,0C139.1,310.7,145.1,306.7,150.1,301z M205.8,288.2L205.8,288.2h-36.5c1.5,6.9,6.2,10.3,12.9,10.3
	c5,0,8.6-1.5,12.7-5.3l8.6,7.6c-5,6.1-12.1,9.9-21.5,9.9c-15.8,0-27.5-11.1-27.5-27.3v-0.2c0-15.1,10.6-27.5,26-27.5
	c17.5,0,25.4,13.7,25.4,28.6v0.2C206,285.9,206,286.9,205.8,288.2z M180.5,267.6L180.5,267.6c-6.3,0-10.2,4.4-11.4,11.1h22.5
	C190.8,272,186.8,267.6,180.5,267.6z M243.3,307.3v-12.2c-2.1,1.3-4.6,1.9-7.3,1.9c-3.3,0-4.8-1.7-4.8-5v-22.7h12.3v-12.8h-12.3V243
	h-15v13.5h-6.3v12.8h6.3v25.2c0,12.2,6.3,15.8,15.4,15.8l0,0C236.6,310.3,240.1,309.2,243.3,307.3z M278.7,310.7L278.7,310.7
	c-16.2,0-28.3-12.2-28.3-27.3v-0.2c0-15.4,12.3-27.5,28.6-27.5c16.2,0,28.3,12,28.3,27.3v0.2C307.3,298.3,295.2,310.7,278.7,310.7z
	 M292.7,283.1L292.7,283.1c0-7.8-5.6-14.7-14-14.7c-8.5,0-13.6,6.7-13.6,14.5v0.2c0,7.8,5.6,14.5,13.8,14.5
	c8.5,0,13.7-6.5,13.7-14.3V283.1z M365.4,309.4v-34.3c0-12.2-6.4-19.6-17.7-19.6c-7.7,0-12.1,4-15.4,8.4v-7.6h-15v53h15V280
	c0-7.2,3.6-10.9,9.4-10.9c5.6,0,9,3.8,9,10.9v29.4l0,0H365.4z M-38.5,395.6L-38.5,395.6l-20-26.9h-19.6v26.9h-7.7v-69.2l29.6,0
	c15,0,24.8,8.2,24.8,20.6c0,11.6-7.9,18.3-18.8,20.2l21,28.4H-38.5z M-56.8,333.6L-56.8,333.6h-21.3v28.2h21.3
	c10.2,0,17.5-5.5,17.5-14.5C-39.3,338.9-45.8,333.6-56.8,333.6z M-1.2,390.2L-1.2,390.2c7.1,0,11.9-2.9,16-7.2l4.8,4.2
	c-5.2,5.7-11.3,9.5-21,9.5c-13.8,0-25.2-10.7-25.2-26.5c0-14.9,10.4-26.7,24.4-26.7c15,0,23.6,12,23.6,26.9c0,0.8,0,1.5,0,2.5h-40.2
	C-17.9,383.9-9.9,390.2-1.2,390.2z M13.6,367.3L13.6,367.3c-0.6-9.3-6-17.5-16-17.5c-8.8,0-15.4,7.4-16.5,17.5H13.6z M48.8,386.8
	l-16.9-42.3h-8.3l21.9,51.5h6.7l22.1-51.5h-8.1l0,0L48.8,386.8z M83.6,325L83.6,325h8.8v8.4h-8.8V325z M84.3,344.5L84.3,344.5h7.5
	v51.1h-7.5V344.5z M127.4,390.2L127.4,390.2c6.9,0,11.9-2.9,15.8-7.2l4.8,4.2c-5.2,5.7-11.3,9.5-20.8,9.5c-14,0-25.4-10.7-25.4-26.5
	c0-14.9,10.4-26.7,24.4-26.7c15,0,23.5,12,23.5,26.9c0,0.8,0,1.5,0,2.5h-40.2C110.5,383.9,118.4,390.2,127.4,390.2z M142.2,367.3
	L142.2,367.3c-0.8-9.3-6.3-17.5-16.3-17.5c-8.8,0-15.4,7.4-16.5,17.5H142.2z M194.1,344.3h-6.2l-13.6,41.2l-13.3-41H153l17.7,51.5
	h6.7l13.6-40.4l13.8,40.4h6.4l17.9-51.5h-7.9l-13.3,41l0,0L194.1,344.3z M239.7,364.3L239.7,364.3c-5.4,0-9.6-4.4-9.6-9.9
	c0-5.5,4.2-9.9,9.8-9.9c5.4,0,9.6,4.4,9.6,9.9C249.5,359.7,245.4,364.3,239.7,364.3z M239.9,345.6L239.9,345.6c-5,0-9,4-9,8.8
	c0,4.8,4,8.8,8.7,8.8c5,0,8.8-4,8.8-8.8C248.5,349.4,244.7,345.6,239.9,345.6z M242,355.3L242,355.3l2.7,4h-2.3l-2.5-3.6h-2.1v3.6
	H236V349h4.4c2.5,0,3.9,1.3,3.9,3.4C244.3,354,243.5,355.1,242,355.3z M240.4,350.6L240.4,350.6h-2.5v3.4h2.5c1.2,0,2.1-0.6,2.1-1.7
	C242.4,351.3,241.6,350.6,240.4,350.6z"/>
<polygon class="st1" points="308.9,436.2 308.9,436.2 468.6,436.2 468.6,274.9 "/>
</svg>
